# xmcd CD database file
#
# Track frame offsets:
#	150
#	13534
#	24184
#	41575
#	65587
#	98099
#	116127
#	132065
#	144728
#	161966
#	184799
#	219302
#	237287
#	263364
#	278316
#
# Disc length: 3908 seconds
#
# Revision: 0
# Processed by: cddbd v1.5.2PL0 Copyright (c) Steve Scherf et al.
# Submitted via: CDex 1.70beta2
#
DISCID=c60f420f
DTITLE=Hans Koller - 1951 - 2001 - Fifty Years of Creativity
DYEAR=2007
DGENRE=Jazz
TTITLE0=Come Back To Sorrento
TTITLE1=Hans Is Hip
TTITLE2=The Way You Look Tonight
TTITLE3=Idaho
TTITLE4=Bill's Blues
TTITLE5=Lover Man
TTITLE6=Skylark
TTITLE7=Goofing
TTITLE8=Schwedenplatte
TTITLE9=How About You
TTITLE10=Painters Lament
TTITLE11=Music For Pablo
TTITLE12=Song One
TTITLE13=Hommage A Webern
TTITLE14=Lush Life
EXTD=YEAR: 2007
EXTT0=
EXTT1=
EXTT2=
EXTT3=
EXTT4=
EXTT5=
EXTT6=
EXTT7=
EXTT8=
EXTT9=
EXTT10=
EXTT11=
EXTT12=
EXTT13=
EXTT14=
PLAYORDER=
